simulation
nRows=50
nColumns=15
endheader
time  TH_x TH_y TH_z SC_y  SC_z  SC_x  AC_y  AC_z  AC_x  GH_y  GH_z  GH_yy  EL_x  PS_y
0.000000  0.000000  0.000000  0.000000  -21.320395  3.575747  -7.544838  59.021727  17.297573  3.398888  37.920817  20.635442  -9.430949  50.725791  72.906177
0.108081  0.000000  0.000000  0.000000  -21.527610  3.159830  -10.586095  60.359529  18.529134  3.767185  40.814635  17.334906  -5.815047  52.334199  71.212233
0.216162  0.000000  0.000000  0.000000  -21.616618  2.958197  -11.840033  60.857163  19.019933  3.884730  41.433980  15.992956  -5.004321  53.303296  70.363798
0.324242  0.000000  0.000000  0.000000  -21.605975  2.932410  -11.574477  60.665429  18.837630  3.834028  40.203954  16.279782  -6.538708  53.729762  70.208912
0.432323  0.000000  0.000000  0.000000  -21.514236  3.044032  -10.120487  59.927716  18.136529  3.644482  37.549659  17.865573  -9.958148  53.710277  70.595619
0.540404  0.000000  0.000000  0.000000  -21.359957  3.254626  -7.831976  58.784793  17.104578  3.321915  33.896194  20.420518  -14.802577  53.341522  71.371957
0.648485  0.000000  0.000000  0.000000  -21.161694  3.525756  -5.066458  57.376921  15.933297  2.879609  29.668662  23.614807  -20.611935  52.720177  72.385970
0.756566  0.000000  0.000000  0.000000  -20.938002  3.818983  -2.158453  55.847787  14.784581  2.349869  25.292163  27.118628  -26.926161  51.942923  73.485698
0.864646  0.000000  0.000000  0.000000  -20.707437  4.095870  0.592818  54.345865  13.773747  1.786617  21.191800  30.602171  -33.285192  51.106439  74.519183
0.972727  0.000000  0.000000  0.000000  -20.488555  4.317981  2.914185  53.022065  12.975167  1.267147  17.792673  33.735625  -39.228966  50.307406  75.334466
1.080808  0.000000  0.000000  0.000000  -20.299911  4.446877  4.567390  52.030116  12.418576  0.874062  15.519883  36.189179  -44.297423  49.642504  75.779588
1.188889  0.000000  0.000000  0.000000  -20.158460  4.447599  5.349904  51.514955  12.110640  0.684369  14.771353  37.658658  -48.053804  49.202129  75.716778
1.296970  0.000000  0.000000  0.000000  -20.055081  4.341799  5.374894  51.471339  12.020436  0.701009  15.502374  38.257391  -50.440859  48.974345  75.239306
1.405051  0.000000  0.000000  0.000000  -19.959440  4.197186  5.000286  51.771567  12.104457  0.861823  17.308126  38.438376  -51.710095  48.863956  74.628413
1.513131  0.000000  0.000000  0.000000  -19.840586  4.082811  4.588053  52.284088  12.325849  1.096462  19.773333  38.664472  -52.121984  48.773351  74.170795
1.621212  0.000000  0.000000  0.000000  -19.667567  4.067720  4.496565  52.876693  12.647734  1.340978  22.482721  39.398538  -51.936999  48.604918  74.153151
1.729293  0.000000  0.000000  0.000000  -19.410100  4.220044  5.095295  53.422337  13.015449  1.530943  25.024604  41.096076  -51.412233  48.261988  74.859753
1.837374  0.000000  0.000000  0.000000  -19.069405  4.564505  6.502506  53.861588  13.391294  1.644360  27.156958  43.864994  -50.645259  47.692428  76.460267
1.945455  0.000000  0.000000  0.000000  -18.691182  5.064537  8.488805  54.227312  13.761402  1.704294  28.877299  47.322422  -49.508409  46.906982  78.962548
2.053535  0.000000  0.000000  0.000000  -18.324492  5.678945  10.785932  54.554848  14.125743  1.741483  30.201240  51.048422  -47.857006  45.921146  82.362229
2.161616  0.000000  0.000000  0.000000  -18.018397  6.366536  13.136308  54.876151  14.476021  1.779228  31.144390  54.623057  -45.546372  44.750415  86.654941
2.269697  0.000000  0.000000  0.000000  -17.821893  7.086121  15.278670  55.216799  14.806862  1.843434  31.722416  57.626779  -42.432108  43.410320  91.836013
2.377778  0.000000  0.000000  0.000000  -17.759931  7.799392  17.029712  55.593890  15.118894  1.945005  31.972094  59.792121  -38.478701  41.930778  97.781838
2.485859  0.000000  0.000000  0.000000  -17.797010  8.475268  18.378469  56.011306  15.447624  2.069970  31.983269  61.233854  -33.924319  40.377858  104.069880
2.593939  0.000000  0.000000  0.000000  -17.888284  9.083788  19.339820  56.472461  15.835135  2.200108  31.853989  62.125853  -29.049443  38.823220  110.231385
2.702020  0.000000  0.000000  0.000000  -17.988908  9.594993  19.941412  56.983978  16.313511  2.308736  31.682301  62.641990  -24.134554  37.338524  115.797599
2.810101  0.000000  0.000000  0.000000  -18.054035  9.978919  20.196568  57.550910  16.927512  2.376090  31.566255  62.956139  -19.460133  35.995428  120.299766
2.918182  0.000000  0.000000  0.000000  -18.048746  10.212529  20.143722  58.163508  17.685398  2.380159  31.585965  63.203877  -15.345975  34.868262  123.334551
3.026263  0.000000  0.000000  0.000000  -17.984635  10.305213  19.886046  58.733974  18.464226  2.326630  31.737526  63.341354  -12.296068  34.043856  124.805132
3.134343  0.000000  0.000000  0.000000  -17.886904  10.275854  19.549352  59.153525  19.096426  2.232933  31.992447  63.272217  -10.868301  33.612701  124.704382
3.242424  0.000000  0.000000  0.000000  -17.780758  10.143334  19.247934  59.312636  19.421263  2.128322  32.322232  62.900103  -11.620570  33.665287  123.025183
3.350505  0.000000  0.000000  0.000000  -17.691404  9.926536  19.091772  59.101741  19.281103  2.044872  32.698387  62.128651  -15.110771  34.292105  119.760420
3.458586  0.000000  0.000000  0.000000  -17.642860  9.641074  19.172893  58.432492  18.545721  2.001168  33.089154  60.877394  -21.764226  35.547656  114.933973
3.566667  0.000000  0.000000  0.000000  -17.648370  9.272841  19.387572  57.402182  17.336596  1.973284  33.433080  59.210449  -30.800303  37.159072  108.851706
3.674747  0.000000  0.000000  0.000000  -17.715422  8.791860  19.514476  56.204894  15.915397  1.934268  33.652866  57.269107  -40.794639  38.678736  101.970003
3.782828  0.000000  0.000000  0.000000  -17.851452  8.168006  19.338151  55.039099  14.529551  1.872419  33.671064  55.195387  -50.316831  39.657390  94.746659
3.890909  0.000000  0.000000  0.000000  -18.063895  7.371156  18.627373  54.106087  13.428752  1.803715  33.410225  53.131306  -57.936477  39.645778  87.639470
3.998990  0.000000  0.000000  0.000000  -18.359119  6.375154  17.161160  53.603256  12.850674  1.752257  32.799165  51.214632  -62.283604  38.225278  81.098412
4.107071  0.000000  0.000000  0.000000  -18.721765  5.234785  14.991579  53.554810  12.825734  1.730818  31.894430  49.496522  -63.220352  35.601902  75.414078
4.215152  0.000000  0.000000  0.000000  -19.116180  4.080401  12.440562  53.820012  13.180143  1.730071  30.871821  47.947270  -61.759205  32.564841  70.728249
4.323232  0.000000  0.000000  0.000000  -19.505937  3.045252  9.843393  54.249507  13.726534  1.741609  29.911708  46.534071  -58.956706  29.925622  67.177009
4.431313  0.000000  0.000000  0.000000  -19.854610  2.262582  7.544162  54.696596  14.258620  1.768054  29.194459  45.224119  -55.869393  28.495769  64.896440
4.539394  0.000000  0.000000  0.000000  -20.125899  1.864276  5.877144  55.017666  14.564877  1.835251  28.899514  43.985702  -53.546121  29.077163  64.019560
4.647475  0.000000  0.000000  0.000000  -20.292420  1.889012  4.991198  55.158640  14.550695  1.950662  29.142946  42.861573  -52.510457  31.812529  64.469879
4.755556  0.000000  0.000000  0.000000  -20.341261  2.224055  4.687543  55.201159  14.363776  2.096045  29.937881  42.015467  -52.432618  35.773763  65.830557
4.863636  0.000000  0.000000  0.000000  -20.260838  2.742797  4.746191  55.241039  14.169295  2.237957  31.288013  41.622202  -52.904634  39.934654  67.653571
4.971717  0.000000  0.000000  0.000000  -20.039566  3.318629  4.928953  55.372934  14.148441  2.351597  33.197038  41.856596  -53.518540  43.268989  69.490897
5.079798  0.000000  0.000000  0.000000  -19.665877  3.824978  5.002389  55.693217  14.479079  2.407830  35.668579  42.893363  -53.866485  44.750949  70.894657
5.187879  0.000000  0.000000  0.000000  -19.146538  4.174867  4.811806  56.248603  15.252885  2.383573  38.624973  44.786613  -53.676772  43.807213  71.585220
5.295960  0.000000  0.000000  0.000000  -18.541968  4.397185  4.437901  56.943437  16.298950  2.282861  41.750711  47.237564  -53.076084  41.188463  71.775243
